HIERARCHY
ROOT Pelvis
{
	OFFSET 0.000000 0.000000 0.000000
	CHANNELS 6 Xposition Yposition Zposition Xrotation Yrotation Zrotation
	JOINT LeftUpLeg_virtual
	{
		OFFSET 0.000000 0.000000 0.000000
		CHANNELS 3 Xrotation Yrotation Zrotation
		JOINT LeftUpLeg
		{
			OFFSET 18.735201 -5.666702 -4.541200
			CHANNELS 3 Xrotation Yrotation Zrotation
			JOINT LeftLeg
			{
				OFFSET -0.021200 -31.938179 0.493100
				CHANNELS 3 Xrotation Yrotation Zrotation
				JOINT LeftFoot
				{
					OFFSET 0.021200 -31.938179 -4.336299
					CHANNELS 3 Xrotation Yrotation Zrotation
					JOINT LeftToeBase
					{
						OFFSET 0.943001 -26.722000 15.023500
						CHANNELS 3 Xrotation Yrotation Zrotation
						End Site
						{
							OFFSET 0 0 0
						}
					}
				}
			}
		}
	}
	JOINT RightUpLeg_virtual
	{
		OFFSET 0.000000 0.000000 0.000000
		CHANNELS 3 Xrotation Yrotation Zrotation
		JOINT RightUpLeg
		{
			OFFSET -18.735201 -5.666702 -4.541200
			CHANNELS 3 Xrotation Yrotation Zrotation
			JOINT RightLeg
			{
				OFFSET 0.018946 -31.938133 0.493100
				CHANNELS 3 Xrotation Yrotation Zrotation
				JOINT RightFoot
				{
					OFFSET -0.018946 -31.938126 -4.336299
					CHANNELS 3 Xrotation Yrotation Zrotation
					JOINT RightToeBase
					{
						OFFSET -0.943001 -26.722004 15.023500
						CHANNELS 3 Xrotation Yrotation Zrotation
						End Site
						{
							OFFSET 0 0 0
						}
					}
				}
			}
		}
	}
	JOINT Hips_virtual
	{
		OFFSET 0.000000 0.000000 0.000000
		CHANNELS 3 Xrotation Yrotation Zrotation
		JOINT Hips
		{
			OFFSET -0.000000 -0.000000 -0.000000
			CHANNELS 3 Xrotation Yrotation Zrotation
			JOINT Spine
			{
				OFFSET 0.000000 10.199997 -0.299500
				CHANNELS 3 Xrotation Yrotation Zrotation
				JOINT Spine1
				{
					OFFSET 0.000000 11.900002 -1.516600
					CHANNELS 3 Xrotation Yrotation Zrotation
					JOINT Spine2
					{
						OFFSET 0.000000 13.600006 -2.842500
						CHANNELS 3 Xrotation Yrotation Zrotation
						JOINT Neck_virtual
						{
							OFFSET 0.000000 0.000000 0.000000
							CHANNELS 3 Xrotation Yrotation Zrotation
							JOINT Neck
							{
								OFFSET 0.000000 9.624100 -2.890100
								CHANNELS 3 Xrotation Yrotation Zrotation
								JOINT Head
								{
									OFFSET 0.000000 14.068802 -1.351900
									CHANNELS 3 Xrotation Yrotation Zrotation
									End Site
									{
										OFFSET 0 0 0
									}
								}
							}
						}
						JOINT LeftShoulder_virtual
						{
							OFFSET 0.000000 0.000000 0.000000
							CHANNELS 3 Xrotation Yrotation Zrotation
							JOINT LeftShoulder
							{
								OFFSET 15.263000 10.923401 -0.547700
								CHANNELS 3 Xrotation Yrotation Zrotation
								JOINT LeftArm
								{
									OFFSET 25.438599 -2.830597 -13.032500
									CHANNELS 3 Xrotation Yrotation Zrotation
									JOINT LeftForeArm
									{
										OFFSET 29.960503 0.000000 0.000000
										CHANNELS 3 Xrotation Yrotation Zrotation
										JOINT LeftHand
										{
											OFFSET 27.849251 0.000000 0.000000
											CHANNELS 3 Xrotation Yrotation Zrotation
											End Site
											{
												OFFSET 0 0 0
											}
										}
									}
								}
							}
						}
						JOINT RightShoulder_virtual
						{
							OFFSET 0.000000 0.000000 0.000000
							CHANNELS 3 Xrotation Yrotation Zrotation
							JOINT RightShoulder
							{
								OFFSET -15.263000 10.923401 -0.547700
								CHANNELS 3 Xrotation Yrotation Zrotation
								JOINT RightArm
								{
									OFFSET -25.438599 -2.830597 -13.032500
									CHANNELS 3 Xrotation Yrotation Zrotation
									JOINT RightForeArm
									{
										OFFSET -29.960503 0.000000 0.000000
										CHANNELS 3 Xrotation Yrotation Zrotation
										JOINT RightHand
										{
											OFFSET -27.849251 0.000000 0.000000
											CHANNELS 3 Xrotation Yrotation Zrotation
											End Site
											{
												OFFSET 0 0 0
											}
										}
									}
								}
							}
						}
					}
				}
			}
		}
	}
}
MOTION
Frames: 4
Frame Time: 0.03333333
-3.916322 83.273758 2.332649 0.000000 0.000000 0.000000 3.004780 -58.203232 6.441633 -38.301751 6.319709 29.636228 47.032829 -9.812353 -10.643529 -10.045132 -1.887120 -11.913890 0.000000 0.000000 0.000000 3.004780 -58.203232 6.441633 -34.548367 -3.820581 -30.692220 55.036093 4.454433 -7.825976 -22.925311 0.235330 25.816710 0.000000 0.000000 0.000000 3.004780 -58.203232 6.441633 0.000000 0.000001 0.000000 11.191383 0.081138 -2.660832 8.434599 0.027694 -5.592319 0.000000 0.000000 0.000000 8.457029 0.027845 -5.591854 -3.775902 5.323433 1.581292 0.000000 0.000000 0.000000 8.457029 0.027845 -5.591854 -6.221668 -11.503855 -4.023824 -23.062122 9.568605 -36.639631 0.046110 -43.169261 -0.011183 0.000000 0.000000 0.000000 8.457029 0.027845 -5.591854 -5.488240 10.658287 2.466534 -41.473800 -26.755535 30.078958 -155.044597 68.136847 156.691629 0.000000 0.000000 0.000000 
-4.296850 83.242386 2.575123 0.000000 0.000000 0.000000 -0.235556 -58.856485 3.222456 -36.453109 6.183942 30.696424 48.249949 -10.292524 -10.883859 -11.415910 -1.730035 -11.950234 0.000000 0.000000 0.000000 -0.235556 -58.856485 3.222456 -32.834222 -4.571807 -30.673751 55.122881 5.548860 -7.774336 -23.369868 0.248146 25.397061 0.000000 0.000000 0.000000 -0.235556 -58.856485 3.222456 0.000000 0.000001 0.000000 10.331077 -0.513731 -1.883554 6.356267 -1.115938 -4.166069 0.000000 0.000000 0.000000 6.388322 -1.004151 -4.289062 -0.940376 5.016487 1.729113 0.000000 0.000000 0.000000 6.388322 -1.004151 -4.289062 -7.444595 -11.224858 -7.938095 -17.825470 12.833960 -32.921177 9.087166 -48.058321 1.764682 0.000000 0.000000 0.000000 6.388322 -1.004151 -4.289062 -5.983466 8.827083 3.075376 -38.745877 -19.254843 28.392009 -159.791306 70.132485 163.700100 0.000000 0.000000 0.000000 
-6.151346 83.489014 3.810123 0.000000 0.000000 0.000000 -3.432798 -57.919424 0.324614 -33.286210 6.614675 31.128130 48.192616 -11.901401 -11.007445 -13.418129 -1.546026 -11.823093 0.000000 0.000000 0.000000 -3.432798 -57.919424 0.324614 -27.818403 -6.662281 -31.337632 53.589408 5.717133 -7.645105 -25.380793 -0.389850 25.858659 0.000000 0.000000 0.000000 -3.432798 -57.919424 0.324614 0.000000 0.000001 0.000000 8.759849 -1.365292 -0.344661 2.764289 -2.740647 -1.391099 0.000000 0.000000 0.000000 2.788125 -2.507212 -1.672034 3.280899 4.349795 2.126158 0.000000 0.000000 0.000000 2.788125 -2.507212 -1.672034 -9.118289 -10.823762 -14.560199 -11.795160 16.529102 -30.545709 20.280454 -54.742446 5.702328 0.000000 0.000000 0.000000 2.788125 -2.507212 -1.672034 -6.841707 5.353244 4.471323 -32.053152 -9.337546 22.260563 -172.524431 63.944040 -178.458035 0.000000 0.000000 0.000000 
-9.059577 85.984283 5.693840 0.000000 0.000000 0.000000 -6.452431 -54.363484 -1.902511 -25.197574 6.333389 25.568130 41.002203 -9.238546 -6.131568 -12.584659 -0.909216 -14.975460 0.000000 0.000000 0.000000 -6.452431 -54.363484 -1.902511 -16.124379 -12.886297 -31.063369 42.544039 3.694137 -6.756882 -24.460658 -1.157149 26.798681 0.000000 0.000000 0.000000 -6.452431 -54.363484 -1.902511 0.000000 0.000000 0.000000 7.430757 -1.464290 1.068046 0.073104 -2.889662 1.174774 0.000000 0.000000 0.000000 0.080100 -2.757797 0.936521 4.590384 3.252016 2.945008 0.000000 0.000000 0.000000 0.080100 -2.757797 0.936521 -10.108037 -9.688272 -18.765856 -8.320136 7.001482 -36.207495 28.914339 -50.052630 8.962392 0.000000 0.000000 0.000000 0.080100 -2.757797 0.936521 -7.484668 2.271112 6.303825 -27.690852 -13.700345 14.464906 -176.945066 47.614014 -170.179108 0.000000 0.000000 0.000000 
